<?xml version="1.0" standalone="no"?><!DOCTYPE svg PUBLIC "-//W3C//DTD SVG 1.1//EN" "http://www.w3.org/Graphics/SVG/1.1/DTD/svg11.dtd"><svg t="1677328135256" class="icon" viewBox="0 0 1024 1024" version="1.1" xmlns="http://www.w3.org/2000/svg" p-id="26382" xmlns:xlink="http://www.w3.org/1999/xlink" width="200" height="200"><path d="M845.913043 22.26087H178.086957c-24.486957 0-44.521739 20.034783-44.52174 44.521739v890.434782c0 24.486957 20.034783 44.521739 44.52174 44.521739h667.826086c24.486957 0 44.521739-20.034783 44.52174-44.521739V66.782609c0-24.486957-20.034783-44.521739-44.52174-44.521739z m-44.521739 890.434782H222.608696V111.304348h578.782608v801.391304zM317.217391 723.478261c0-24.486957 20.034783-44.521739 44.521739-44.521739h300.52174c24.486957 0 44.521739 20.034783 44.521739 44.521739s-20.034783 44.521739-44.521739 44.521739h-300.52174c-24.486957 0-44.521739-20.034783-44.521739-44.521739z m6.678261-211.478261c0-24.486957 20.034783-44.521739 44.521739-44.521739h292.730435c24.486957 0 44.521739 20.034783 44.521739 44.521739s-20.034783 44.521739-44.521739 44.521739H368.417391c-24.486957 0-44.521739-20.034783-44.521739-44.521739z m0-211.478261c0-24.486957 20.034783-44.521739 44.521739-44.521739h292.730435c24.486957 0 44.521739 20.034783 44.521739 44.521739s-20.034783 44.521739-44.521739 44.521739H368.417391c-24.486957 0-44.521739-20.034783-44.521739-44.521739z" p-id="26383"></path></svg>